HIERARCHY
ROOT root
{
	OFFSET	0	13.1	24.9
	CHANNELS 6  Xposition Yposition Zposition Xrotation Yrotation Zrotation
	JOINT spine_1
	{
		OFFSET	0	9.99999	0
		CHANNELS 3  Xrotation Yrotation Zrotation
		JOINT spine_2
		{
			OFFSET	0	112	-10
			CHANNELS 3  Xrotation Yrotation Zrotation
			JOINT spine_3
			{
				OFFSET	0	206.5	19.3
				CHANNELS 3  Xrotation Yrotation Zrotation
				JOINT spine_4
				{
					OFFSET	0	110.4	14.6
					CHANNELS 3  Xrotation Yrotation Zrotation
					JOINT neck_1
					{
						OFFSET	0	71.8	-50.3
						CHANNELS 3  Xrotation Yrotation Zrotation
						JOINT neck_2
						{
							OFFSET	0	86.2	-25.8
							CHANNELS 3  Xrotation Yrotation Zrotation
							JOINT head_ee
							{
								OFFSET	0	179.8	-8.7
								CHANNELS 3  Xrotation Yrotation Zrotation
								End Site
								{
									OFFSET	1	0	0
								}
							}
						}
					}
					JOINT left_clavicle
					{
						OFFSET	-43.2	22.4	-70.8
						CHANNELS 3  Xrotation Yrotation Zrotation
						JOINT left_shoulder
						{
							OFFSET	-93.9	-5.79999	48.7
							CHANNELS 3  Xrotation Yrotation Zrotation
							JOINT left_elbow
							{
								OFFSET	-291.4	-30.8	15.2
								CHANNELS 3  Xrotation Yrotation Zrotation
								JOINT left_lowarm_twist
								{
									OFFSET	-110.7	-3.89999	13.6
									CHANNELS 3  Xrotation Yrotation Zrotation
									JOINT left_hand
									{
										OFFSET	-110.7	-3.89999	13.6
										CHANNELS 3  Xrotation Yrotation Zrotation
										JOINT left_ee
										{
											OFFSET	-80.8	-5.10001	12.1
											CHANNELS 3  Xrotation Yrotation Zrotation
											End Site
											{
												OFFSET	1	0	0
											}
										}
									}
								}
							}
						}
					}
					JOINT right_clavicle
					{
						OFFSET	43.2	22.4	-70.8
						CHANNELS 3  Xrotation Yrotation Zrotation
						JOINT right_shoulder
						{
							OFFSET	93.9	-5.79999	48.7
							CHANNELS 3  Xrotation Yrotation Zrotation
							JOINT right_elbow
							{
								OFFSET	291.4	-30.8	15.2
								CHANNELS 3  Xrotation Yrotation Zrotation
								JOINT right_lowarm_twist
								{
									OFFSET	110.7	-3.89999	13.6
									CHANNELS 3  Xrotation Yrotation Zrotation
									JOINT right_hand
									{
										OFFSET	110.7	-3.89999	13.6
										CHANNELS 3  Xrotation Yrotation Zrotation
										JOINT right_ee
										{
											OFFSET	80.8	-5.10001	12.1
											CHANNELS 3  Xrotation Yrotation Zrotation
											End Site
											{
												OFFSET	1	0	0
											}
										}
									}
								}
							}
						}
					}
				}
			}
		}
	}
	JOINT left_hip
	{
		OFFSET	-82.8	-127.5	0.300001
		CHANNELS 3  Xrotation Yrotation Zrotation
		JOINT left_knee
		{
			OFFSET	-28.2	-396.7	2.2
			CHANNELS 3  Xrotation Yrotation Zrotation
			JOINT left_ankle
			{
				OFFSET	-11.7	-411.3	35.4
				CHANNELS 3  Xrotation Yrotation Zrotation
				JOINT left_toes
				{
					OFFSET	0	-60	-88.6
					CHANNELS 3  Xrotation Yrotation Zrotation
					JOINT left_foot_ee
					{
						OFFSET	-22.5	-16.5	-42.2
						CHANNELS 3  Xrotation Yrotation Zrotation
						End Site
						{
							OFFSET	1	0	0
						}
					}
				}
			}
		}
	}
	JOINT right_hip
	{
		OFFSET	82.8	-127.5	0.300001
		CHANNELS 3  Xrotation Yrotation Zrotation
		JOINT right_knee
		{
			OFFSET	28.2	-396.7	2.2
			CHANNELS 3  Xrotation Yrotation Zrotation
			JOINT right_ankle
			{
				OFFSET	11.7	-411.3	35.4
				CHANNELS 3  Xrotation Yrotation Zrotation
				JOINT right_toes
				{
					OFFSET	0	-60	-88.6
					CHANNELS 3  Xrotation Yrotation Zrotation
					JOINT right_foot_ee
					{
						OFFSET	22.5	-16.5	-42.2
						CHANNELS 3  Xrotation Yrotation Zrotation
						End Site
						{
							OFFSET	1	0	0
						}
					}
				}
			}
		}
	}
}
MOTION
Frames: 15
Frame Time: 0.02
1372.05 701.618 -1475.22 -4.71684573865 18.6204608404 2.30223961099 0.517145 0.377816 1.83919 0.518989 0.260039 1.85949 0.528229 -0.119316 1.87379 0.523373 0.178058 1.86912 -2.56584 11.6445 -3.0277 -2.23369 23.4846 -1.59485 -0.0 0.0 -0.0 -0.937267 16.9008 0.527652 -8.10869 -34.3249 49.9499 3.66953 -61.1679 2.16925 -10.6838 -0.496528 1.27053 -1.64775 0.0716077 -11.0406 -0.0 0.0 -0.0 8.97477 5.70122 -17.6507 -22.3648 29.6637 -68.8728 0.391386 10.9726 -0.037592 -44.698 3.46408 -4.37729 -3.97009 -0.187364 27.4978 0.0 0.0 0.0 -18.4656 -6.25158 6.9707 -2.09397 0.0805361 0.311243 3.49137 6.99653 -0.506506 -20.3583 0.0 0.0 -0.0 0.0 -0.0 38.5787 15.0085 -8.37429 -7.21192 -0.229057 -1.08239 -17.4807 -1.41414 -2.64643 20.495 -0.0 -0.0 0.0 0.0 0.0 
1360.91635207 702.717 -1493.49795469 -5.10382867904 18.643774292 2.55674581348 0.286714 0.477208 1.84027 0.288527 0.359161 1.86689 0.30123 -0.0311893 1.90086 0.296288 0.269353 1.88194 -2.63673 12.1281 -2.81559 -2.29669 24.2053 -1.29337 -0.0 0.0 -0.0 -1.68942 17.0516 -0.617477 -7.10356 -35.0502 52.459 3.33957 -58.8344 1.88343 -11.3863 -0.537381 1.35058 -1.46662 -5.03166 -12.106 -0.0 0.0 -0.0 9.07976 5.07109 -17.8701 -21.9315 29.6009 -68.0761 0.382909 10.7406 -0.0359953 -44.5616 3.44883 -4.3687 -4.20462 1.98942 30.4939 0.0 0.0 0.0 -17.4778 -7.20655 6.92549 -4.43394 0.156995 0.662196 6.1748 5.48581 -0.889598 -18.974 0.0 0.0 -0.0 0.0 -0.0 38.1433 14.6099 -8.88664 -6.83368 -0.220445 -1.02498 -18.2311 -4.72687 -2.74538 21.1989 -0.0 -0.0 0.0 0.0 0.0 
1361.13906882 702.717 -1493.63177137 -5.08340737107 17.9509273168 2.4917003394 0.286714 0.477208 1.84027 0.288527 0.359161 1.86689 0.30123 -0.0311893 1.90086 0.296288 0.269353 1.88194 -2.63673 12.1281 -2.81559 -2.29669 24.2053 -1.29337 -0.0 0.0 -0.0 -1.68942 17.0516 -0.617477 -7.10356 -35.0502 52.459 3.33957 -58.8344 1.88343 -11.3863 -0.537381 1.35058 -1.46662 -5.03166 -12.106 -0.0 0.0 -0.0 9.07976 5.07109 -17.8701 -21.9315 29.6009 -68.0761 0.382909 10.7406 -0.0359953 -44.5616 3.44883 -4.3687 -4.20462 1.98942 30.4939 0.0 0.0 0.0 -17.4778 -7.20655 6.92549 -4.43394 0.156995 0.662196 6.1748 5.48581 -0.889598 -18.974 0.0 0.0 -0.0 0.0 -0.0 38.1433 14.6099 -8.88664 -6.83368 -0.220445 -1.02498 -18.2311 -4.72687 -2.74538 21.1989 -0.0 -0.0 0.0 0.0 0.0 
1349.41684228 707.001 -1514.2327469 -4.95060034968 18.5556855743 2.07761941535 0.0462335 0.421572 1.81079 0.0480059 0.305512 1.83394 0.0588435 -0.0848293 1.85727 0.0540907 0.209505 1.84736 -2.51631 12.7716 -2.62669 -2.14574 25.2159 -1.03725 -0.0 0.0 -0.0 -0.775505 17.3078 0.833534 -7.943 -33.4402 53.2755 3.00217 -56.0713 1.59894 -10.7688 -0.501418 1.28024 -1.3446 -0.335521 -9.16769 -0.0 0.0 -0.0 9.3305 3.86201 -18.3844 -19.2551 28.8885 -67.4644 0.313069 8.81569 -0.0241325 -44.5498 3.44751 -4.36795 -4.27159 1.58589 30.7953 0.0 0.0 0.0 -17.7101 -6.34573 7.22719 -6.15439 0.204029 0.922029 7.92112 9.54188 -1.13417 -18.8199 0.0 0.0 -0.0 0.0 -0.0 37.7449 14.7666 -8.84556 -9.76039 -0.277176 -1.47046 -15.7843 -10.8318 -2.36907 22.1362 -0.0 -0.0 0.0 0.0 0.0 
1338.37740804 710.45 -1530.54272602 -4.76984428523 19.9882841468 1.57761732582 -0.123712 0.293766 1.78274 -0.121961 0.17975 1.79781 -0.115312 -0.205773 1.79502 -0.1198 0.0802516 1.80499 -2.35681 12.9094 -2.05188 -1.99661 25.0015 -0.445603 -0.0 0.0 -0.0 -0.213336 17.9072 1.77129 -7.52703 -32.0604 54.943 2.65161 -52.7086 1.31381 -11.4926 -0.543651 1.36266 -1.12637 1.20031 -7.00894 -0.0 0.0 -0.0 10.0511 7.16783 -19.9559 -20.1637 28.5556 -65.6991 0.318672 8.97092 -0.0249988 -44.7827 3.47356 -4.38261 -4.10159 2.88317 30.1749 0.0 0.0 0.0 -16.0596 -7.56566 7.04331 -11.4159 0.299166 1.72352 12.4055 6.68369 -1.74844 -17.4702 0.0 0.0 -0.0 0.0 -0.0 36.8238 14.9004 -8.62471 -10.895 -0.293035 -1.64383 -12.2516 -16.6383 -1.84922 23.8631 -0.0 -0.0 0.0 0.0 0.0 
1339.21153213 710.45 -1531.04188184 -4.74450414311 19.1312697186 1.50192982132 -0.123712 0.293766 1.78274 -0.121961 0.17975 1.79781 -0.115312 -0.205773 1.79502 -0.1198 0.0802516 1.80499 -2.35681 12.9094 -2.05188 -1.99661 25.0015 -0.445603 -0.0 0.0 -0.0 -0.213336 17.9072 1.77129 -7.52703 -32.0604 54.943 2.65161 -52.7086 1.31381 -11.4926 -0.543651 1.36266 -1.12637 1.20031 -7.00894 -0.0 0.0 -0.0 10.0511 7.16783 -19.9559 -20.1637 28.5556 -65.6991 0.318672 8.97092 -0.0249988 -44.7827 3.47356 -4.38261 -4.10159 2.88317 30.1749 0.0 0.0 0.0 -16.0596 -7.56566 7.04331 -11.4159 0.299166 1.72352 12.4055 6.68369 -1.74844 -17.4702 0.0 0.0 -0.0 0.0 -0.0 36.8238 14.9004 -8.62471 -10.895 -0.293035 -1.64383 -12.2516 -16.6383 -1.84922 23.8631 -0.0 -0.0 0.0 0.0 0.0 
1312.29658753 721.478 -1557.52772265 -4.85529446867 22.2367251129 2.15910837445 -0.820768 -0.00899167 0.954832 -0.820264 -0.0697291 0.952326 -0.821138 -0.28146 0.912454 -0.822275 -0.133829 0.945451 -2.22001 15.4721 -0.850261 -1.76052 28.7062 1.107 -0.0 0.0 -0.0 1.4945 18.5309 4.42155 -6.51225 -30.5661 59.2523 2.11038 -46.2664 0.901683 -12.4681 -0.602214 1.47288 -0.942132 9.48893 -2.11858 -0.0 0.0 -0.0 10.7735 11.6223 -21.5159 -16.0063 24.91 -62.0051 0.371668 10.4323 -0.0339301 -43.2035 3.29812 -4.28113 -3.86766 8.49652 31.2136 0.0 0.0 0.0 -9.03325 -6.62483 5.17938 -27.0689 0.145127 4.11301 15.9876 7.30757 -2.22146 -13.9071 0.0 0.0 -0.0 0.0 -0.0 34.1533 15.9527 -8.34468 -10.1656 -0.283234 -1.53234 -11.9386 -21.1936 -1.82736 23.1611 -0.0 -0.0 0.0 0.0 0.0 
1314.38055262 721.478 -1559.00106199 -4.80754252775 20.8040942679 2.02894495113 -0.820768 -0.00899167 0.954832 -0.820264 -0.0697291 0.952326 -0.821138 -0.28146 0.912454 -0.822275 -0.133829 0.945451 -2.22001 15.4721 -0.850261 -1.76052 28.7062 1.107 -0.0 0.0 -0.0 1.4945 18.5309 4.42155 -6.51225 -30.5661 59.2523 2.11038 -46.2664 0.901683 -12.4681 -0.602214 1.47288 -0.942132 9.48893 -2.11858 -0.0 0.0 -0.0 10.7735 11.6223 -21.5159 -16.0063 24.91 -62.0051 0.371668 10.4323 -0.0339301 -43.2035 3.29812 -4.28113 -3.86766 8.49652 31.2136 0.0 0.0 0.0 -9.03325 -6.62483 5.17938 -27.0689 0.145127 4.11301 15.9876 7.30757 -2.22146 -13.9071 0.0 0.0 -0.0 0.0 -0.0 34.1533 15.9527 -8.34468 -10.1656 -0.283234 -1.53234 -11.9386 -21.1936 -1.82736 23.1611 -0.0 -0.0 0.0 0.0 0.0 
1307.0678362 727.384 -1575.91343003 -3.79954368898 20.4292647939 1.81719286935 -1.45674 -0.0415384 0.581488 -1.45656 -0.0784552 0.577667 -1.45723 -0.212001 0.543057 -1.45762 -0.123576 0.569722 -2.10857 17.264 0.273756 -1.5722 31.0751 2.47711 -0.0 0.0 -0.0 2.19801 18.1026 5.4624 -5.20993 -27.7009 61.0892 1.75645 -41.0226 0.657147 -11.6692 -0.554115 1.38269 -0.792257 14.7474 1.11375 -0.0 0.0 -0.0 11.3279 14.6548 -22.6817 -15.4399 22.7897 -59.9195 0.424881 11.886 -0.0442296 -43.2449 3.30268 -4.28385 -4.164 7.68472 33.1683 0.0 0.0 0.0 -2.44172 -6.86327 3.34867 -43.4275 -0.699095 6.47131 20.8397 10.6759 -2.83993 -10.8134 0.0 0.0 -0.0 0.0 -0.0 33.3393 16.6462 -8.36624 -13.213 -0.31475 -1.99881 -9.63049 -18.9749 -1.4585 22.8767 -0.0 -0.0 0.0 0.0 0.0 
1281.00936567 735.201 -1605.93673414 -2.75396153115 22.8917544589 0.948689040613 -2.1358 -0.116509 0.764296 -2.13549 -0.164906 0.755334 -2.13747 -0.346024 0.691372 -2.13806 -0.232495 0.73734 -1.19355 16.0143 1.53214 -0.718693 27.6258 3.46939 -0.0 0.0 -0.0 2.77961 19.5058 6.4025 -6.06218 -27.2703 63.0716 1.44601 -35.6122 0.464454 -10.0918 -0.462863 1.20269 -0.35854 19.9442 5.90396 -0.0 0.0 -0.0 11.831 20.1839 -23.5335 -12.4888 25.8713 -58.6507 0.334105 9.39779 -0.027462 -42.3608 3.20566 -4.22501 -3.66372 7.9768 29.3715 0.0 0.0 0.0 5.4958 -8.35914 3.76359 -58.5106 -2.04133 8.35931 24.5166 14.4295 -3.30436 -7.37643 0.0 0.0 -0.0 0.0 -0.0 31.6259 18.534 -7.31242 -17.3876 -0.317589 -2.63916 -1.8449 -18.6261 -0.275428 23.7384 -0.0 -0.0 0.0 0.0 0.0 
1247.76427204 749.155 -1642.64263834 -2.88627360054 25.7780535624 -0.250709604224 -2.0897 0.0428239 1.04585 -2.0891 -0.0238095 1.04646 -2.08897 -0.280197 1.00853 -2.09037 -0.117411 1.04012 -1.69036 12.5879 1.3625 -1.43275 21.6431 3.00543 -0.0 0.0 -0.0 2.44099 20.7622 5.95292 -8.15474 -26.6694 65.3586 1.25877 -31.9446 0.360303 -8.41056 -0.37112 1.0082 0.744882 26.8881 14.8348 -0.0 0.0 -0.0 11.9026 24.2977 -23.3407 -8.04696 28.3574 -55.8557 0.452716 12.6404 -0.0501421 -40.6882 3.02464 -4.10964 -3.31969 10.6827 28.0052 0.0 0.0 0.0 14.6014 -10.6236 4.48117 -67.532 -3.06578 9.30005 26.0347 21.7591 -3.57424 -5.65818 0.0 0.0 -0.0 0.0 -0.0 27.9531 21.8565 -5.06701 -20.068 -0.294825 -3.04976 4.58317 -13.4011 0.665436 24.6181 -0.0 -0.0 0.0 0.0 0.0 
1253.71195644 749.155 -1646.89815659 -2.83993954155 23.7708801422 -0.36126255921 -2.0897 0.0428239 1.04585 -2.0891 -0.0238095 1.04646 -2.08897 -0.280197 1.00853 -2.09037 -0.117411 1.04012 -1.69036 12.5879 1.3625 -1.43275 21.6431 3.00543 -0.0 0.0 -0.0 2.44099 20.7622 5.95292 -8.15474 -26.6694 65.3586 1.25877 -31.9446 0.360303 -8.41056 -0.37112 1.0082 0.744882 26.8881 14.8348 -0.0 0.0 -0.0 11.9026 24.2977 -23.3407 -8.04696 28.3574 -55.8557 0.452716 12.6404 -0.0501421 -40.6882 3.02464 -4.10964 -3.31969 10.6827 28.0052 0.0 0.0 0.0 14.6014 -10.6236 4.48117 -67.532 -3.06578 9.30005 26.0347 21.7591 -3.57424 -5.65818 0.0 0.0 -0.0 0.0 -0.0 27.9531 21.8565 -5.06701 -20.068 -0.294825 -3.04976 4.58317 -13.4011 0.665436 24.6181 -0.0 -0.0 0.0 0.0 0.0 
1211.89785983 753.787 -1668.69246937 -3.90975531407 30.4515659011 -1.20610727987 -1.90449 0.424845 1.31407 -1.90359 0.340374 1.33843 -1.89445 0.00584884 1.38101 -1.89704 0.22386 1.36277 -1.05982 8.53308 1.4221 -0.941405 14.1835 2.51789 -0.0 0.0 -0.0 3.30959 20.3911 7.21169 -13.0131 -26.9103 64.2079 1.10525 -28.7003 0.282764 -5.67883 -0.234365 0.686765 2.13927 29.7688 23.7115 -0.0 0.0 -0.0 10.9282 25.0291 -21.0521 -7.15828 28.5357 -52.5679 0.843356 22.6737 -0.169086 -39.1574 2.862 -3.99949 -2.70971 12.1524 24.1017 0.0 0.0 0.0 22.4165 -3.77848 4.00265 -63.733 -2.61628 8.92345 25.9476 24.4301 -3.6132 -5.86376 0.0 0.0 -0.0 0.0 -0.0 24.2129 24.7278 -1.2875 -21.122 -0.280616 -3.21086 13.2927 -9.25512 1.86764 21.5475 -0.0 -0.0 0.0 0.0 0.0 
1217.50466335 753.787 -1673.19990636 -3.84660852711 28.8141315035 -1.33380787945 -1.90449 0.424845 1.31407 -1.90359 0.340374 1.33843 -1.89445 0.00584884 1.38101 -1.89704 0.22386 1.36277 -1.05982 8.53308 1.4221 -0.941405 14.1835 2.51789 -0.0 0.0 -0.0 3.30959 20.3911 7.21169 -13.0131 -26.9103 64.2079 1.10525 -28.7003 0.282764 -5.67883 -0.234365 0.686765 2.13927 29.7688 23.7115 -0.0 0.0 -0.0 10.9282 25.0291 -21.0521 -7.15828 28.5357 -52.5679 0.843356 22.6737 -0.169086 -39.1574 2.862 -3.99949 -2.70971 12.1524 24.1017 0.0 0.0 0.0 22.4165 -3.77848 4.00265 -63.733 -2.61628 8.92345 25.9476 24.4301 -3.6132 -5.86376 0.0 0.0 -0.0 0.0 -0.0 24.2129 24.7278 -1.2875 -21.122 -0.280616 -3.21086 13.2927 -9.25512 1.86764 21.5475 -0.0 -0.0 0.0 0.0 0.0 
1223.77140725 753.787 -1677.93596715 -3.78341912292 27.0260756214 -1.4687423272 -1.90449 0.424845 1.31407 -1.90359 0.340374 1.33843 -1.89445 0.00584884 1.38101 -1.89704 0.22386 1.36277 -1.05982 8.53308 1.4221 -0.941405 14.1835 2.51789 -0.0 0.0 -0.0 3.30959 20.3911 7.21169 -13.0131 -26.9103 64.2079 1.10525 -28.7003 0.282764 -5.67883 -0.234365 0.686765 2.13927 29.7688 23.7115 -0.0 0.0 -0.0 10.9282 25.0291 -21.0521 -7.15828 28.5357 -52.5679 0.843356 22.6737 -0.169086 -39.1574 2.862 -3.99949 -2.70971 12.1524 24.1017 0.0 0.0 0.0 22.4165 -3.77848 4.00265 -63.733 -2.61628 8.92345 25.9476 24.4301 -3.6132 -5.86376 0.0 0.0 -0.0 0.0 -0.0 24.2129 24.7278 -1.2875 -21.122 -0.280616 -3.21086 13.2927 -9.25512 1.86764 21.5475 -0.0 -0.0 0.0 0.0 0.0 
